<?xml version="1.0" encoding="UTF-8"?>
<svg id="Layer_1" data-name="Layer 1" xmlns="http://www.w3.org/2000/svg" xmlns:xlink="http://www.w3.org/1999/xlink" viewBox="0 0 360 80">
  <defs>
    <style>
      .cls-1 {
        fill: #4660ae;
      }

      .cls-2 {
        fill: #e2acbf;
      }

      .cls-3 {
        fill: url(#linear-gradient-8);
      }

      .cls-4 {
        fill: url(#linear-gradient-7);
      }

      .cls-5 {
        fill: url(#linear-gradient-5);
      }

      .cls-6 {
        fill: url(#linear-gradient-6);
      }

      .cls-7 {
        fill: url(#linear-gradient-9);
      }

      .cls-8 {
        fill: url(#linear-gradient-4);
      }

      .cls-9 {
        fill: url(#linear-gradient-3);
      }

      .cls-10, .cls-11, .cls-12, .cls-13 {
        fill: #122765;
      }

      .cls-14 {
        fill: url(#linear-gradient);
      }

      .cls-15 {
        fill: #00d9ff;
      }

      .cls-16 {
        fill: #e6b8c6;
      }

      .cls-17 {
        fill: url(#linear-gradient-2);
      }

      .cls-17, .cls-12, .cls-18 {
        opacity: .5;
      }

      .cls-19 {
        fill: url(#linear-gradient-10);
      }

      .cls-20 {
        fill: url(#linear-gradient-11);
      }

      .cls-21 {
        fill: url(#linear-gradient-12);
      }

      .cls-22 {
        fill: url(#linear-gradient-13);
      }

      .cls-23 {
        fill: url(#linear-gradient-19);
      }

      .cls-24 {
        fill: url(#linear-gradient-14);
      }

      .cls-25 {
        fill: url(#linear-gradient-21);
      }

      .cls-26 {
        fill: url(#linear-gradient-20);
      }

      .cls-27 {
        fill: url(#linear-gradient-22);
      }

      .cls-28 {
        fill: url(#linear-gradient-23);
      }

      .cls-29 {
        fill: url(#linear-gradient-15);
      }

      .cls-30 {
        fill: url(#linear-gradient-16);
      }

      .cls-31 {
        fill: url(#linear-gradient-17);
      }

      .cls-32 {
        fill: url(#linear-gradient-18);
      }

      .cls-33 {
        fill: #0ee6ff;
      }

      .cls-11 {
        opacity: .4;
      }

      .cls-13, .cls-34 {
        opacity: .7;
      }

      .cls-35 {
        fill: #b8d3f4;
      }

      .cls-18, .cls-34 {
        fill: #b07a98;
      }

      .cls-36 {
        fill: #fde0e4;
      }
    </style>
    <linearGradient id="linear-gradient" x1="-1718.03" y1="56.08" x2="-1649.72" y2="56.08" gradientTransform="translate(-1645.03) rotate(-180) scale(1 -1)" gradientUnits="userSpaceOnUse">
      <stop offset="0" stop-color="#4660ae"/>
      <stop offset="1" stop-color="#8eafe6"/>
    </linearGradient>
    <linearGradient id="linear-gradient-2" x1="41.85" y1="62.31" x2="56.33" y2="62.31" gradientUnits="userSpaceOnUse">
      <stop offset="0" stop-color="#e2acbf"/>
      <stop offset="1" stop-color="#b07a98"/>
    </linearGradient>
    <linearGradient id="linear-gradient-3" x1="23.19" y1="70.4" x2="27.15" y2="70.4" gradientUnits="userSpaceOnUse">
      <stop offset="0" stop-color="#fde0e4"/>
      <stop offset="1" stop-color="#e2acbf"/>
    </linearGradient>
    <linearGradient id="linear-gradient-4" x1="-1477.11" y1="70.4" x2="-1473.14" y2="70.4" gradientTransform="translate(-1442.2) rotate(-180) scale(1 -1)" xlink:href="#linear-gradient-3"/>
    <linearGradient id="linear-gradient-5" x1="26.44" y1="70.39" x2="31.75" y2="70.39" xlink:href="#linear-gradient-3"/>
    <linearGradient id="linear-gradient-6" x1="42.81" x2="46.78" xlink:href="#linear-gradient-3"/>
    <linearGradient id="linear-gradient-7" x1="-1496.73" y1="70.4" x2="-1492.76" y2="70.4" gradientTransform="translate(-1442.2) rotate(-180) scale(1 -1)" xlink:href="#linear-gradient-3"/>
    <linearGradient id="linear-gradient-8" x1="46.06" y1="70.39" x2="51.38" y2="70.39" xlink:href="#linear-gradient-3"/>
    <linearGradient id="linear-gradient-9" x1="-3693.7" y1="57.03" x2="-3646.51" y2="57.03" gradientTransform="translate(-3631.26) rotate(-180) scale(1 -1)" gradientUnits="userSpaceOnUse">
      <stop offset="0" stop-color="#ffd8d6"/>
      <stop offset=".36" stop-color="#ffc5c1"/>
      <stop offset="1" stop-color="#ffa79f"/>
    </linearGradient>
    <linearGradient id="linear-gradient-10" x1="15.25" y1="57.03" x2="38.82" y2="57.03" gradientUnits="userSpaceOnUse">
      <stop offset="0" stop-color="#e2acbf"/>
      <stop offset="1" stop-color="#fde0e4"/>
    </linearGradient>
    <linearGradient id="linear-gradient-11" x1="38.86" x2="62.44" xlink:href="#linear-gradient-10"/>
    <linearGradient id="linear-gradient-12" x1="-1177.61" y1="23.41" x2="-1116.05" y2="23.41" gradientTransform="translate(-1107.97) rotate(-180) scale(1 -1)" gradientUnits="userSpaceOnUse">
      <stop offset="0" stop-color="#8eafe6"/>
      <stop offset="1" stop-color="#4660ae"/>
    </linearGradient>
    <linearGradient id="linear-gradient-13" x1="14.79" y1="16.53" x2="14.79" y2="3.89" gradientTransform="matrix(1,0,0,1,0,0)" xlink:href="#linear-gradient-12"/>
    <linearGradient id="linear-gradient-14" x1="200.54" y1="16.53" x2="200.54" y2="3.89" gradientTransform="translate(263.45) rotate(-180) scale(1 -1)" xlink:href="#linear-gradient"/>
    <linearGradient id="linear-gradient-15" x1="8.08" y1="36.05" x2="22.65" y2="36.05" gradientTransform="matrix(1,0,0,1,0,0)" xlink:href="#linear-gradient"/>
    <linearGradient id="linear-gradient-16" x1="55.07" y1="36.05" x2="69.65" y2="36.05" gradientTransform="matrix(1,0,0,1,0,0)" xlink:href="#linear-gradient"/>
    <linearGradient id="linear-gradient-17" x1="40.27" y1="39.9" x2="55.07" y2="39.9" gradientTransform="matrix(1,0,0,1,0,0)" xlink:href="#linear-gradient-12"/>
    <linearGradient id="linear-gradient-18" x1="4.69" y1="53.04" x2="20.09" y2="53.04" gradientTransform="matrix(1,0,0,1,0,0)" xlink:href="#linear-gradient-12"/>
    <linearGradient id="linear-gradient-19" x1="57.59" y1="53.04" x2="73" y2="53.04" gradientTransform="matrix(1,0,0,1,0,0)" xlink:href="#linear-gradient-12"/>
    <linearGradient id="linear-gradient-20" x1="27.05" y1="48.71" x2="27.05" y2="41.24" xlink:href="#linear-gradient-2"/>
    <linearGradient id="linear-gradient-21" x1="50.64" y1="48.71" x2="50.64" y2="41.24" xlink:href="#linear-gradient-2"/>
    <linearGradient id="linear-gradient-22" x1="34.1" y1="38.11" x2="43.63" y2="38.11" xlink:href="#linear-gradient-10"/>
    <linearGradient id="linear-gradient-23" x1="9.54" y1="39.5" x2="15.25" y2="39.5" gradientTransform="matrix(1,0,0,1,0,0)" xlink:href="#linear-gradient-12"/>
  </defs>
  <g>
    <path class="cls-14" d="M11.67,36.05s-5.96,4.09-6.98,13.44c0,0,1.57,5.26,5.34,8.09l.94-2.12s4.92,5.11,13.66,10.84c0,0,13.63,9.4,14.22,9.81.59-.4,14.22-9.81,14.22-9.81,8.74-5.74,13.66-10.84,13.66-10.84l.94,2.12c3.77-2.83,5.34-8.09,5.34-8.09-1.02-9.35-6.98-13.44-6.98-13.44"/>
    <polygon class="cls-13" points="62.44 42.94 57.59 63.15 38.84 76.11 20.09 63.15 15.25 42.94 62.44 42.94"/>
    <polygon class="cls-36" points="21.36 55.52 29.09 69.1 35.84 68.05 21.36 55.52"/>
    <polygon class="cls-17" points="56.33 55.52 48.59 69.1 41.85 68.05 56.33 55.52"/>
    <g>
      <g>
        <path class="cls-9" d="M23.19,69.33c0,1.81.77,3.44,1.98,4.59,1.22-1.15,1.98-2.78,1.98-4.59,0-.75-.13-1.21-.37-1.58-.75-1.15-2.47-1.15-3.23,0-.24.37-.37.83-.37,1.58Z"/>
        <path class="cls-2" d="M26.78,67.75c-.28-.43-.7-.7-1.15-.81-.38,1.38-.51,3.65.51,5.81.64-.99,1.01-2.16,1.01-3.42,0-.75-.13-1.21-.37-1.58Z"/>
      </g>
      <g>
        <path class="cls-8" d="M34.9,69.33c0,1.81-.77,3.44-1.98,4.59-1.22-1.15-1.98-2.78-1.98-4.59,0-.75.13-1.21.37-1.58.75-1.15,2.47-1.15,3.23,0,.24.37.37.83.37,1.58Z"/>
        <path class="cls-18" d="M31.31,67.75c.28-.43.7-.7,1.15-.81.47,1.38.6,3.65-.51,5.81-.64-.99-1.01-2.16-1.01-3.42,0-.75.13-1.21.37-1.58Z"/>
      </g>
      <path class="cls-5" d="M26.44,69.28c0,2.42,1.02,4.6,2.66,6.15,1.63-1.54,2.66-3.72,2.66-6.15,0-1.62-.46-2.47-1.25-3.31s-2.05-.8-2.8,0c-.79.84-1.25,1.69-1.25,3.31Z"/>
      <path class="cls-34" d="M26.44,69.28c0,2.42,1.02,4.6,2.66,6.15v-10.06c-.51,0-1.02.2-1.4.6-.79.84-1.25,1.69-1.25,3.31Z"/>
    </g>
    <g>
      <g>
        <path class="cls-6" d="M42.81,69.33c0,1.81.77,3.44,1.98,4.59,1.22-1.15,1.98-2.78,1.98-4.59,0-.75-.13-1.21-.37-1.58-.75-1.15-2.47-1.15-3.23,0-.24.37-.37.83-.37,1.58Z"/>
        <path class="cls-2" d="M46.41,67.75c-.28-.43-.7-.7-1.15-.81-.38,1.38-.51,3.65.51,5.81.64-.99,1.01-2.16,1.01-3.42,0-.75-.13-1.21-.37-1.58Z"/>
      </g>
      <g>
        <path class="cls-4" d="M54.53,69.33c0,1.81-.77,3.44-1.98,4.59-1.22-1.15-1.98-2.78-1.98-4.59,0-.75.13-1.21.37-1.58.75-1.15,2.47-1.15,3.23,0,.24.37.37.83.37,1.58Z"/>
        <path class="cls-18" d="M50.93,67.75c.28-.43.7-.7,1.15-.81.47,1.38.6,3.65-.51,5.81-.64-.99-1.01-2.16-1.01-3.42,0-.75.13-1.21.37-1.58Z"/>
      </g>
      <path class="cls-3" d="M46.06,69.28c0,2.42,1.02,4.6,2.66,6.15,1.63-1.54,2.66-3.72,2.66-6.15,0-1.62-.46-2.47-1.25-3.31s-2.05-.8-2.8,0c-.79.84-1.25,1.69-1.25,3.31Z"/>
      <path class="cls-34" d="M46.06,69.28c0,2.42,1.02,4.6,2.66,6.15v-10.06c-.51,0-1.02.2-1.4.6-.79.84-1.25,1.69-1.25,3.31Z"/>
    </g>
    <polygon class="cls-7" points="15.25 42.94 21.36 55.52 38.84 72.74 56.33 55.52 62.44 42.94 40.23 41.33 36.88 41.37 15.25 42.94"/>
    <path class="cls-19" d="M21.36,55.52l-6.11-12.58,21.63-1.57,1.95-.02v3.66s0,27.71,0,27.71c-.04-.04-17.46-17.19-17.46-17.19Z"/>
    <path class="cls-20" d="M56.33,55.52l6.11-12.58-21.63-1.57-1.95-.02v31.37s17.46-17.19,17.46-17.19Z"/>
    <polygon class="cls-21" points="38.64 41.24 15.25 42.94 8.08 29.17 14.58 16.53 8.84 3.89 28 11.06 38.64 9.74 39.09 9.74 49.73 11.06 68.89 3.89 63.14 16.53 69.65 29.17 62.48 42.94 39.09 41.24 38.64 41.24"/>
    <polygon class="cls-22" points="14.58 16.53 20.75 12.84 8.84 3.89 14.58 16.53"/>
    <polygon class="cls-24" points="63.14 16.53 56.94 12.84 68.89 3.89 63.14 16.53"/>
    <g>
      <polygon class="cls-29" points="8.08 29.17 22.65 42.4 15.25 42.94 8.08 29.17"/>
      <polygon class="cls-1" points="22.65 42.4 35.7 37.4 37.46 41.33 22.65 42.4"/>
      <polygon class="cls-30" points="69.65 29.17 55.07 42.4 62.48 42.94 69.65 29.17"/>
      <polygon class="cls-31" points="55.07 42.4 42.02 37.4 40.27 41.33 55.07 42.4"/>
    </g>
    <path class="cls-32" d="M10.03,57.58l.94-2.12s3.24,3.36,9.12,7.69l-4.84-20.21-10.56,6.55s1.57,5.26,5.34,8.09Z"/>
    <path class="cls-23" d="M67.66,57.58l-.94-2.12s-3.24,3.36-9.12,7.69l4.84-20.21,10.56,6.55s-1.57,5.26-5.34,8.09Z"/>
    <polygon class="cls-26" points="38.84 41.26 38.64 41.24 15.25 42.94 38.84 48.71 38.84 41.26"/>
    <polygon class="cls-25" points="38.84 41.26 39.05 41.24 62.44 42.94 38.84 48.71 38.84 41.26"/>
    <polygon class="cls-12" points="15.25 42.94 39.09 41.24 62.44 42.94 38.86 44.69 15.25 42.94"/>
    <path class="cls-27" d="M38.86,29.79s.02.02.02.02l4.74,4.96-4.74,11.6-.02.05s-.02-.05-.02-.05l-4.74-11.6,4.74-4.96.02-.02Z"/>
    <path class="cls-36" d="M38.86,29.79v16.63s.02-.05.02-.05l4.74-11.6-4.74-4.96s0-.01-.02-.02Z"/>
    <g>
      <path class="cls-10" d="M53.29,20.09c3.9,0,7.08,3.17,7.08,7.08s-3.17,7.08-7.08,7.08-7.08-3.17-7.08-7.08,3.17-7.08,7.08-7.08"/>
      <path class="cls-36" d="M53.29,20.09c3.9,0,7.08,3.17,7.08,7.08s-3.17,7.08-7.08,7.08-7.08-3.17-7.08-7.08,3.17-7.08,7.08-7.08M53.29,17.13c-5.55,0-10.04,4.5-10.04,10.04s4.5,10.04,10.04,10.04,10.04-4.5,10.04-10.04-4.5-10.04-10.04-10.04h0Z"/>
      <circle class="cls-33" cx="51.32" cy="24.41" r="2.36"/>
      <circle class="cls-16" cx="56.66" cy="29.85" r="1.15"/>
    </g>
    <g>
      <path class="cls-10" d="M24.43,20.09c3.9,0,7.08,3.17,7.08,7.08s-3.17,7.08-7.08,7.08-7.08-3.17-7.08-7.08,3.17-7.08,7.08-7.08"/>
      <path class="cls-36" d="M24.43,20.09c3.9,0,7.08,3.17,7.08,7.08s-3.17,7.08-7.08,7.08-7.08-3.17-7.08-7.08,3.17-7.08,7.08-7.08M24.43,17.13c-5.55,0-10.04,4.5-10.04,10.04s4.5,10.04,10.04,10.04,10.04-4.5,10.04-10.04-4.5-10.04-10.04-10.04h0Z"/>
      <circle class="cls-33" cx="22.46" cy="24.41" r="2.36"/>
      <circle class="cls-16" cx="27.8" cy="29.85" r="1.15"/>
    </g>
    <path class="cls-28" d="M9.54,38.07l5.71,4.87-3.58-6.89s-1.24,1.12-2.12,2.02Z"/>
    <path class="cls-11" d="M68.04,37.92l-5.6,5.25,3.67-7.05s1.02.88,1.93,1.8Z"/>
    <polygon class="cls-35" points="49.73 11.06 41.85 10.08 41.85 10.08 39.09 9.74 39.09 9.74 38.64 9.74 38.64 9.74 35.87 10.08 35.87 10.08 28 11.06 8.84 3.89 20.85 12.9 38.86 17.33 56.88 12.9 68.89 3.89 49.73 11.06"/>
  </g>
  <g>
    <path class="cls-15" d="M114.74,31.2c-3.12,0-5.47,1.16-7.05,3.47h-.14c-.71-1.15-1.66-2.01-2.84-2.6-1.18-.58-2.6-.88-4.25-.88s-3.16.33-4.33.98c-1.17.65-2.12,1.58-2.85,2.77h-1.51v-3.37h-5.78v5.64h2.82v14.99h5.71v-11.31c0-1.56.36-2.72,1.08-3.47.72-.76,1.79-1.13,3.21-1.13,2.96,0,4.43,1.54,4.43,4.61v11.31h5.71v-11.31c0-3.07,1.46-4.61,4.37-4.61s4.37,1.54,4.37,4.61v11.31h5.71v-12.41c0-2.64-.78-4.73-2.34-6.27-1.56-1.55-3.67-2.32-6.33-2.32Z"/>
    <path class="cls-15" d="M142.95,32.41c-1.55-.83-3.4-1.24-5.55-1.24s-4.11.43-5.72,1.29-2.86,2.09-3.73,3.68c-.87,1.59-1.31,3.49-1.31,5.69s.45,4.11,1.34,5.72c.89,1.62,2.17,2.86,3.82,3.75,1.65.88,3.59,1.32,5.81,1.32,2.73,0,4.97-.62,6.74-1.87,1.76-1.25,2.88-2.97,3.33-5.17h-5.71c-.3.85-.8,1.48-1.51,1.89-.71.41-1.67.62-2.89.62-1.54,0-2.77-.4-3.71-1.2-.94-.8-1.52-1.97-1.75-3.51h15.64v-1.93c0-2.13-.41-3.96-1.24-5.5-.83-1.54-2.01-2.72-3.56-3.54ZM132.24,39.59c.3-1.28.89-2.26,1.77-2.92.88-.66,2.02-1,3.42-1s2.51.33,3.33.98c.83.65,1.33,1.63,1.51,2.94h-10.04Z"/>
    <path class="cls-15" d="M169.67,39.25c0-2.64-.81-4.64-2.42-6.02-1.62-1.38-3.96-2.06-7.03-2.06-2.77,0-5,.58-6.67,1.75-1.67,1.17-2.74,2.89-3.2,5.16h5.67c.48-1.6,1.88-2.41,4.19-2.41,2.66,0,3.99,1.11,3.99,3.33v.79h-5.91c-2.66,0-4.7.55-6.12,1.65-1.42,1.1-2.13,2.67-2.13,4.71,0,1.93.69,3.48,2.06,4.66,1.38,1.18,3.28,1.77,5.71,1.77,1.79,0,3.28-.33,4.47-.98,1.19-.65,2.14-1.58,2.85-2.77h1.44v3.37h5.78v-5.64h-2.68v-7.32ZM164.21,43.89c0,.83-.24,1.56-.72,2.22-.48.65-1.13,1.17-1.96,1.56-.83.39-1.78.58-2.85.58-.99,0-1.76-.21-2.34-.62-.57-.41-.86-1-.86-1.75,0-1.54,1.03-2.3,3.09-2.3h5.64v.31Z"/>
    <path class="cls-15" d="M188.31,31.2c-1.81,0-3.32.33-4.54.98-1.21.65-2.22,1.58-3.03,2.77h-1.44v-3.37h-5.78v5.64h2.82v14.99h5.71v-11.28c0-1.51.41-2.66,1.22-3.45.81-.79,2-1.19,3.56-1.19s2.74.4,3.56,1.19c.81.79,1.22,1.94,1.22,3.45v11.28h5.71v-12.34c0-2.64-.79-4.74-2.35-6.31-1.57-1.57-3.79-2.35-6.65-2.35Z"/>
    <path class="cls-15" d="M205.38,21.28l-.35-1.75h-.79l-.35,1.75c-.27,1.32-1.3,2.36-2.62,2.62l-1.75.35v.79l1.75.35c1.32.27,2.36,1.3,2.62,2.62l.35,1.75h.79l.35-1.75c.27-1.32,1.3-2.36,2.62-2.62l1.75-.35v-.79l-1.75-.35c-1.32-.27-2.36-1.3-2.62-2.62Z"/>
    <rect class="cls-15" x="201.78" y="31.58" width="5.71" height="20.63"/>
    <path class="cls-15" d="M225.57,31.2c-1.81,0-3.32.33-4.54.98-1.21.65-2.22,1.58-3.03,2.77h-1.44v-3.37h-5.78v5.64h2.82v14.99h5.71v-11.28c0-1.51.41-2.66,1.22-3.45.81-.79,2-1.19,3.56-1.19s2.74.4,3.56,1.19c.81.79,1.22,1.94,1.22,3.45v11.28h5.71v-12.34c0-2.64-.79-4.74-2.35-6.31-1.57-1.57-3.79-2.35-6.65-2.35Z"/>
    <path class="cls-15" d="M256.78,34.95h-1.44c-.73-1.19-1.71-2.12-2.94-2.78-1.23-.66-2.71-1-4.45-1-3.09,0-5.53.95-7.31,2.85-1.78,1.9-2.66,4.46-2.66,7.67,0,2.13.4,3.99,1.19,5.57.79,1.58,1.9,2.8,3.33,3.66,1.43.86,3.12,1.29,5.07,1.29,1.51,0,2.81-.29,3.9-.86,1.09-.57,1.94-1.41,2.56-2.51h.17v2.75c0,1.54-.48,2.71-1.43,3.52-.95.81-2.32,1.22-4.11,1.22-2.64,0-4.23-.85-4.78-2.54h-6.05c.37,2.22,1.52,3.96,3.45,5.21,1.94,1.25,4.45,1.87,7.55,1.87,3.51,0,6.2-.8,8.08-2.41,1.88-1.6,2.82-3.87,2.82-6.81v-14.44h2.82v-5.64h-5.78v3.37ZM254.03,42.38c0,1.51-.45,2.7-1.34,3.58-.89.87-2.13,1.31-3.71,1.31-1.67,0-2.97-.48-3.9-1.44-.93-.96-1.39-2.33-1.39-4.09s.46-3.14,1.39-4.13c.93-.99,2.23-1.48,3.9-1.48,1.56,0,2.79.43,3.7,1.29.91.86,1.36,2.03,1.36,3.52v1.44Z"/>
    <path class="cls-15" d="M274.79,27.8h7.65v-4.47h-8.51c-1.49,0-2.65.37-3.47,1.12-.83.75-1.24,1.9-1.24,3.45v3.68h-3.75v5.66h3.68v14.97h5.71v-14.97h4.57v-5.66h-4.64v-3.78Z"/>
    <path class="cls-15" d="M303.41,31.58h-5.71v11.28c0,1.49-.43,2.64-1.29,3.44-.86.8-2.08,1.2-3.66,1.2s-2.69-.37-3.45-1.12c-.77-.74-1.15-1.86-1.15-3.35v-11.45h-5.71v12.55c0,2.61.77,4.68,2.3,6.19,1.54,1.51,3.74,2.27,6.6,2.27,1.93,0,3.48-.32,4.66-.96,1.18-.64,2.18-1.57,3.01-2.78h1.44v3.37h5.78v-5.64h-2.82v-14.99Z"/>
    <rect class="cls-15" x="309.8" y="23.33" width="5.71" height="28.88"/>
    <path class="cls-15" d="M340.94,39.25c0-2.75-.86-4.87-2.56-6.32-1.68-1.43-4.14-2.16-7.29-2.16-2.84,0-5.17.61-6.9,1.83-1.75,1.22-2.88,3.04-3.36,5.41l-.1.48h6.46l.09-.29c.43-1.43,1.67-2.12,3.81-2.12,2.45,0,3.58.93,3.58,2.93v.39h-5.51c-2.74,0-4.88.58-6.37,1.73-1.52,1.18-2.29,2.87-2.29,5.03,0,2.04.74,3.71,2.2,4.96,1.44,1.24,3.45,1.87,5.97,1.87,1.85,0,3.42-.35,4.66-1.03,1.18-.65,2.15-1.56,2.89-2.72h.82v3.37h6.58v-6.44h-2.68v-6.92ZM342.82,46.97v4.83h-4.97v-3.37h-2.08l-.12.2c-.67,1.12-1.58,2-2.7,2.62-1.13.62-2.56.93-4.28.93-2.32,0-4.15-.56-5.44-1.67-1.29-1.11-1.92-2.53-1.92-4.35,0-1.93.65-3.36,1.98-4.39,1.34-1.04,3.32-1.57,5.87-1.57h6.32v-1.19c0-1.7-.76-3.74-4.39-3.74-2.36,0-3.87.81-4.48,2.41h-4.88c.48-1.92,1.47-3.41,2.92-4.42,1.6-1.12,3.76-1.68,6.44-1.68,2.96,0,5.24.66,6.77,1.97,1.51,1.29,2.28,3.21,2.28,5.71v7.72h2.68Z"/>
    <path class="cls-15" d="M325.94,45.88c0,.89.35,1.59,1.03,2.08.64.46,1.51.69,2.57.69,1.13,0,2.15-.21,3.02-.62.88-.42,1.59-.98,2.11-1.69.53-.72.8-1.55.8-2.46v-.71h-6.04c-2.89,0-3.5,1.47-3.5,2.71ZM334.02,45.87c-.44.6-1.05,1.08-1.81,1.44-.77.36-1.67.55-2.68.55-.89,0-1.6-.18-2.1-.54-.47-.34-.69-.8-.69-1.43,0-.82.28-1.9,2.69-1.9h5.23c-.02.71-.23,1.32-.64,1.89Z"/>
    <path class="cls-15" d="M347.22,52.61h6.51v-21.43h-6.51v21.43ZM348.03,31.99h4.9v19.82h-4.9v-19.82Z"/>
    <path class="cls-15" d="M353.93,23.51c-1.17-.23-2.07-1.14-2.31-2.31l-.42-2.07h-1.45l-.42,2.07c-.23,1.17-1.14,2.07-2.31,2.31l-2.07.42v1.45l2.07.42c1.17.23,2.07,1.14,2.31,2.31l.42,2.07h1.45l.42-2.07c.23-1.17,1.14-2.07,2.31-2.31l2.07-.42v-1.45l-2.07-.42ZM355.19,24.72l-1.43.29c-1.49.3-2.64,1.45-2.94,2.94l-.29,1.43h-.13l-.29-1.43c-.3-1.49-1.45-2.64-2.94-2.94l-1.43-.29v-.13l1.43-.29c1.49-.3,2.64-1.45,2.94-2.94l.29-1.43h.13l.29,1.43c.3,1.49,1.45,2.64,2.94,2.94l1.43.29v.13Z"/>
  </g>
</svg>