<svg width="276" height="52" viewBox="0 0 276 52" fill="none" xmlns="http://www.w3.org/2000/svg">
<g clip-path="url(#clip0_638_2982)">
<path d="M62.1792 16.8082C62.1792 15.2606 63.4247 14.1441 65.0741 14.1441C66.7236 14.1441 67.941 15.2662 67.941 16.8082C67.941 18.3503 66.6955 19.4447 65.0741 19.4447C63.4527 19.4447 62.1792 18.3227 62.1792 16.8082ZM62.4204 20.4894H67.7222V34.4345H62.4204V20.4894Z" fill="#1D191F"/>
<path d="M70.46 20.4894H75.7898V22.7279C76.5752 21.2632 78.09 20.1135 80.4688 20.1135C83.1449 20.1135 85.0131 21.7938 85.0131 25.2594V34.429H79.6833V26.4311C79.6833 25.0162 79.1672 24.2976 77.8993 24.2976C76.6313 24.2976 75.7898 25.0714 75.7898 26.7241V34.429H70.46V20.4838V20.4894Z" fill="#1D191F"/>
<path d="M87.4819 20.4894H92.8117V22.7279C93.5972 21.2632 95.112 20.1135 97.4908 20.1135C100.167 20.1135 102.035 21.7938 102.035 25.2594V34.429H96.7053V26.4311C96.7053 25.0162 96.1892 24.2976 94.9212 24.2976C93.6533 24.2976 92.8117 25.0714 92.8117 26.7241V34.429H87.4819V20.4838V20.4894Z" fill="#1D191F"/>
<path d="M103.825 27.6305V27.415C103.825 22.8827 107.264 20.108 111.724 20.108C116.184 20.108 119.573 22.7998 119.573 27.2768V27.4924C119.573 32.0799 116.111 34.7717 111.696 34.7717C107.281 34.7717 103.819 32.2126 103.819 27.625L103.825 27.6305ZM114.159 27.5255V27.3376C114.159 25.1543 113.373 23.977 111.724 23.977C110.075 23.977 109.205 25.0714 109.205 27.2547V27.4702C109.205 29.7364 110.019 30.9082 111.724 30.9082C113.43 30.9082 114.159 29.7364 114.159 27.5255Z" fill="#1D191F"/>
<path d="M119.629 20.4894H125.312L127.994 28.9681L130.698 20.4894H135.702L130.535 34.4345H124.824L119.629 20.4894Z" fill="#1D191F"/>
<path d="M135.703 30.5655C135.703 27.2878 138.407 26.0055 143.305 26.0055H144.522V25.7678C144.522 24.5961 144.303 23.7449 142.873 23.7449C141.655 23.7449 141.274 24.5187 141.195 25.2372H136.213C136.432 21.8269 139.136 20.0914 143.192 20.0914C147.249 20.0914 149.796 21.744 149.796 25.4252V34.4345H144.657V32.8371C144.062 33.7989 142.817 34.7827 140.516 34.7827C137.975 34.7827 135.697 33.5557 135.697 30.571L135.703 30.5655ZM144.522 29.554V28.8354H143.383C141.599 28.8354 140.948 29.1837 140.948 30.1675C140.948 30.8363 141.464 31.2619 142.435 31.2619C143.652 31.2619 144.516 30.5931 144.516 29.554H144.522Z" fill="#1D191F"/>
<path d="M152.803 29.764V24.0047H151.153V20.4838H152.803V17.6318H158.133V20.4838H160.837V24.0047H158.133V29.2555C158.133 30.2117 158.649 30.6152 159.513 30.6152C160.001 30.6152 160.377 30.5655 160.837 30.3997V34.3461C160.186 34.534 159.187 34.7441 158.02 34.7441C154.693 34.7441 152.797 33.2517 152.797 29.7585L152.803 29.764Z" fill="#1D191F"/>
<path d="M162.761 16.8082C162.761 15.2606 164.007 14.1441 165.656 14.1441C167.306 14.1441 168.523 15.2662 168.523 16.8082C168.523 18.3503 167.278 19.4447 165.656 19.4447C164.035 19.4447 162.761 18.3227 162.761 16.8082ZM163.008 20.4894H168.31V34.4345H163.008V20.4894Z" fill="#1D191F"/>
<path d="M170.369 27.6305V27.415C170.369 22.8827 173.808 20.108 178.268 20.108C182.728 20.108 186.117 22.7998 186.117 27.2768V27.4924C186.117 32.0799 182.656 34.7717 178.24 34.7717C173.825 34.7717 170.363 32.2126 170.363 27.625L170.369 27.6305ZM180.703 27.5255V27.3376C180.703 25.1543 179.918 23.977 178.268 23.977C176.619 23.977 175.749 25.0714 175.749 27.2547V27.4702C175.749 29.7364 176.563 30.9082 178.268 30.9082C179.974 30.9082 180.703 29.7364 180.703 27.5255Z" fill="#1D191F"/>
<path d="M187.985 20.4894H193.315V22.7279C194.1 21.2632 195.615 20.1135 197.994 20.1135C200.67 20.1135 202.538 21.7938 202.538 25.2594V34.429H197.208V26.4311C197.208 25.0162 196.692 24.2976 195.424 24.2976C194.156 24.2976 193.315 25.0714 193.315 26.7241V34.429H187.985V20.4838V20.4894Z" fill="#1D191F"/>
<path d="M204.951 27.7411V27.5255C204.951 23.2585 207.655 20.2462 211.554 20.2462C213.911 20.2462 215.369 21.3682 216.183 22.7279V13.8235H218.427V34.429H216.183V32.0302C215.369 33.3899 213.394 34.6722 211.341 34.6722C207.633 34.6722 204.957 32.0854 204.957 27.7411H204.951ZM216.261 27.5531V27.3376C216.261 23.767 214.528 22.0867 211.767 22.0867C209.007 22.0867 207.274 24.0323 207.274 27.4205V27.636C207.274 31.1569 209.198 32.8316 211.577 32.8316C214.202 32.8316 216.261 31.1237 216.261 27.5531Z" fill="#1D191F"/>
<path d="M221.361 27.6029V27.3873C221.361 23.1756 224.093 20.2407 227.992 20.2407C231.269 20.2407 234.349 22.1862 234.349 27.1718V27.8903H223.689C223.796 31.0629 225.339 32.8206 228.234 32.8206C230.427 32.8206 231.695 32.0191 231.993 30.3941H234.242C233.754 33.1909 231.404 34.6612 228.206 34.6612C224.2 34.6612 221.361 31.8865 221.361 27.5974V27.6029ZM232.049 26.1106C231.83 23.2309 230.315 22.0868 227.987 22.0868C225.659 22.0868 224.144 23.6344 223.768 26.1106H232.049Z" fill="#1D191F"/>
<path d="M237.395 20.4894H239.639V22.8384C240.453 21.4788 242.372 20.2517 244.431 20.2517C248.139 20.2517 250.871 22.9158 250.871 27.2657V27.4813C250.871 31.7483 248.33 34.6777 244.431 34.6777C242.102 34.6777 240.453 33.5281 239.639 32.1463V39.293H237.395V20.5004V20.4894ZM248.543 27.5808V27.3652C248.543 23.8444 246.568 22.0867 244.189 22.0867C241.564 22.0867 239.561 23.7947 239.561 27.3652V27.5808C239.561 31.1514 241.457 32.8316 244.217 32.8316C246.978 32.8316 248.549 30.969 248.549 27.5808H248.543Z" fill="#1D191F"/>
<path d="M252.936 27.5808V27.3652C252.936 23.1811 255.887 20.2462 259.887 20.2462C263.887 20.2462 266.844 23.1535 266.844 27.3376V27.5532C266.844 31.7649 263.893 34.6722 259.865 34.6722C255.837 34.6722 252.936 31.6599 252.936 27.5808ZM264.516 27.5808V27.3929C264.516 24.165 262.704 22.0867 259.887 22.0867C257.071 22.0867 255.259 24.165 255.259 27.3652V27.5808C255.259 30.7534 257.02 32.8316 259.887 32.8316C262.754 32.8316 264.516 30.7258 264.516 27.5808Z" fill="#1D191F"/>
<path d="M270.261 30.9358V22.352H268.23V20.4838H270.261V17.3112H272.505V20.4838H275.804V22.352H272.505V30.7202C272.505 32.0799 273.128 32.7487 274.266 32.7487C274.968 32.7487 275.512 32.6437 276 32.4558V34.324C275.54 34.4843 274.996 34.6169 274.076 34.6169C271.506 34.6169 270.261 33.1246 270.261 30.9358Z" fill="#1D191F"/>
<path d="M4.62852 26C4.62852 14.8627 13.2572 5.62117 24.4161 4.57653V0C10.6652 1.0557 0 12.3202 0 26C0 39.6798 10.6652 50.9443 24.4161 52V47.4235C13.2572 46.3788 4.62852 37.1373 4.62852 26Z" fill="#1D191F"/>
<path d="M53.0009 26C53.0009 12.3036 42.3412 1.06122 28.5847 0V4.571C39.7493 5.61565 48.3723 14.8406 48.3723 25.9945C48.3723 37.1484 39.7493 46.3733 28.5847 47.4179V51.9889C42.3412 50.9332 53.0009 39.6909 53.0009 25.9945" fill="#1D191F"/>
<path d="M12.1519 20.4341H15.591V31.5659H12.1519V35.7887H24.416V31.5659H20.9769V20.4341H24.416V16.2113H12.1519V20.4341Z" fill="#1D191F"/>
<path d="M33.0954 35.4405C34.1389 35.2083 35.0927 34.8712 35.923 34.44C36.759 34.0034 37.4995 33.4728 38.1167 32.8648C38.7338 32.2568 39.2499 31.5714 39.6539 30.8308C40.0578 30.0957 40.3552 29.2942 40.5515 28.4485C40.7479 27.6139 40.8433 26.7351 40.8433 25.8342C40.8433 24.9332 40.7479 24.0378 40.5571 23.2088C40.3664 22.3741 40.069 21.5893 39.6763 20.8707C39.278 20.1522 38.7731 19.4945 38.1615 18.9141C37.55 18.3393 36.8319 17.8418 36.0128 17.4439C35.2049 17.0459 34.2736 16.7419 33.2525 16.5264C32.2426 16.3163 31.1037 16.2113 29.8751 16.2113H28.5735V20.4341H29.0279C29.8639 20.4341 30.61 20.5004 31.2552 20.6275C31.8836 20.7547 32.4334 20.9315 32.899 21.1637C33.3535 21.3848 33.735 21.6556 34.0436 21.9707C34.3577 22.2912 34.6102 22.6505 34.8009 23.0429C34.9973 23.4464 35.1432 23.8997 35.2329 24.386C35.3283 24.889 35.3732 25.4362 35.3732 26C35.3732 26.5638 35.3283 27.111 35.2329 27.6139C35.1432 28.1003 34.9973 28.5536 34.8009 28.9626C34.6102 29.3605 34.3521 29.7198 34.0436 30.0349C33.735 30.3444 33.3535 30.6207 32.899 30.8474C32.4334 31.0795 31.8836 31.2564 31.2552 31.378C30.6156 31.5051 29.8695 31.5714 29.0279 31.5714H28.5735V35.7942H29.617C30.8793 35.7942 32.0463 35.6781 33.0842 35.446" fill="#1D191F"/>
</g>
<defs>
<clipPath id="clip0_638_2982">
<rect width="276" height="52" fill="white"/>
</clipPath>
</defs>
</svg>
