<svg width="537" height="38" viewBox="0 0 537 38" fill="none" xmlns="http://www.w3.org/2000/svg">
<path d="M154.13 22.12C152.59 20.31 150.49 19.07 148.73 17.48C145.57 16.42 142.76 15.01 140.24 13.31C139.67 11.81 138.48 11.3 138.69 9.30002C138.72 8.97002 139.03 8.19002 139.15 8.06002C139.27 7.93002 139.33 7.73002 139.46 7.60002C140.08 6.95002 140.42 6.26002 141.16 5.90002C142.35 5.32002 144.41 5.31002 145.33 5.59002C147.18 6.16002 148.49 7.56002 149.19 8.99002C149.39 9.87002 149.39 10.95 149.97 11.46C150.95 11.82 152.27 11.47 153.21 11.3C153.41 10.38 153.78 9.24002 153.68 8.22002C153.6 7.40002 153.72 5.56002 153.68 4.51002C153.68 4.26002 153.68 4.01002 153.68 3.74002C153.68 3.13002 153.79 2.43002 153.52 1.89002C152.31 1.15002 150.02 1.69002 149.2 2.35002C147.35 1.42002 144.6 0.950018 142.72 1.27002C141.86 1.41002 140.69 1.33002 139.94 1.58002C139.35 1.78002 138.45 2.62002 137.93 2.97002C137.92 2.97002 137.8 3.10002 137.77 3.12002C136.65 4.21002 135.31 5.60002 134.68 6.82002C134.73 8.42002 134.34 10.05 134.53 11.61C134.62 12.31 135.08 12.94 135 13.62C135.29 13.72 135.24 14.08 135.31 14.23C135.33 14.29 135.58 14.32 135.61 14.39C135.81 14.72 135.77 15 135.92 15.16C136.01 15.25 135.98 15.36 136.08 15.47C136.5 15.97 137.33 16.33 137.93 16.86C138.61 17.46 139.05 18.2 139.63 18.56C140.25 18.95 141.16 19.13 141.94 19.49C142.67 19.82 143.42 20.25 144.11 20.56C145.64 21.27 147.18 21.8 148.28 23.04C149.34 23.46 150.08 24.22 150.75 25.05C150.82 25.97 151.34 26.73 151.37 27.68C151.42 29.4 150.48 31 149.67 32C148.39 32.43 147.15 32.88 145.96 33.39C143.36 33.68 141.83 32.89 140.1 32.31C138.55 30.87 137.6 28.83 137 26.44C136.25 26.04 134.39 25.99 133.45 26.29C132.68 27.53 133.01 29.28 132.99 30.92C132.99 31.37 132.84 31.86 132.84 32.31C132.83 32.79 133 33.26 132.99 33.7C132.96 34.91 132.49 36.11 133.14 37.1C133.81 37.43 135.46 37.47 136.23 37.25C137.08 37.01 137.38 36.18 138.08 36.17C140.2 37.4 143.3 37.86 146.12 37.56C147.44 37.42 148.25 37.19 149.05 36.94C149.51 36.79 149.99 36.77 150.29 36.63C151.04 36.29 151.58 35.68 152.15 35.24C152.21 35.19 152.38 35.27 152.46 35.24C152.5 35.22 152.57 34.97 152.61 34.93C153.12 34.5 153.53 34.05 154 33.7C154.44 32.55 155.12 31.63 155.54 30.46C155.51 28.63 155.64 26.65 155.38 25.05C154.89 24.16 154.54 23.11 154.15 22.12H154.13ZM26.12 8.06002C25.81 7.23002 25.53 6.57002 25.2 6.21002C25.1 6.09002 25.15 5.87002 25.04 5.74002C24.7 5.34002 24.15 5.09002 23.8 4.82002C23.28 4.62002 23.22 3.97002 22.57 3.90002C22.11 3.54002 21.57 3.56002 21.03 3.28002C20.39 2.95002 19.92 2.30002 19.17 2.05002C18.63 1.86002 17.89 1.85002 17.16 1.74002C15.49 1.49002 14.23 1.54002 12.53 1.59002C11.61 1.62002 10.7 1.43002 9.74999 1.43002C8.67999 1.43002 7.57999 1.78002 6.50999 1.74002C5.66999 1.72002 4.84999 1.44002 4.03999 1.43002C3.84999 1.43002 3.81999 1.58002 3.57999 1.59002C2.65999 1.65002 1.57999 1.36002 0.799986 1.90002C0.539986 2.90002 0.509986 4.78002 0.949986 5.60002C1.78999 5.99002 3.25999 5.76002 3.72999 6.53002C3.80999 9.84002 3.84999 13.85 3.88999 17.18C3.88999 17.86 3.72999 18.47 3.72999 19.19C3.72999 21.31 3.99999 23.44 4.03999 25.52C4.06999 27.1 3.91999 28.68 3.88999 30.16C3.86999 31.06 4.25999 32.05 3.57999 32.78C2.80999 33.31 1.56999 32.6 0.799986 33.25C0.389986 33.68 0.479986 34.47 0.649986 35.11C0.529986 35.87 0.409986 36.55 0.799986 37.11C3.13999 37.51 6.04999 37.17 8.67999 37.26C9.90999 37.3 11.12 37.58 12.08 36.96C12.52 36.02 12.31 34.38 11.93 33.41C11.22 32.89 9.68999 33.18 8.83999 32.78C7.80999 31.29 8.28999 28.07 8.36999 26.15C8.40999 25.37 8.02999 24.64 8.52999 24.14C9.41999 23.73 10.46 23.91 11.31 23.83C12.68 23.7 15.14 24.01 16.86 23.83C17.7 23.75 18.67 23.36 19.18 23.21C19.47 23.13 19.91 23.14 20.11 23.05C20.58 22.86 21.02 22.4 21.5 22.13C22.03 21.82 22.66 21.66 23.04 21.36C23.43 21.05 23.82 20.56 24.12 20.13C24.35 19.83 24.69 19.85 24.89 19.67C25.39 19.22 25.44 18.67 25.66 18.12C25.95 17.39 26.58 16.57 26.75 15.96C26.99 15.01 26.95 13.7 26.9 12.41C26.82 10.28 26.61 9.35002 26.12 8.08002V8.06002ZM21.18 17.33C20.38 17.58 19.86 18.36 19.02 18.72C18.02 19.13 16.76 19.08 15.77 19.64C13.8 19.64 12.08 19.7 10.22 19.64C9.65999 19.62 9.24999 19.89 8.82999 19.49C8.33999 19.05 8.57999 18.36 8.51999 17.79C8.37999 16.3 8.34999 14.68 8.35999 13C8.35999 12.53 8.51999 11.98 8.51999 11.46C8.51999 9.87002 8.22999 7.96002 8.66999 6.21002C9.10999 5.71002 9.77999 5.97002 10.37 5.90002C11.92 5.73002 14.25 5.62002 16.08 5.90002C17.72 6.15002 19.08 6.99002 20.25 7.29002C20.6 7.77002 21.01 8.19002 21.49 8.53002C21.66 9.75002 22.37 11.01 22.41 12.39C22.47 14.24 21.76 15.94 21.17 17.33H21.18ZM69.51 1.73002C68.97 1.70002 68.4 1.44002 67.81 1.42002C67.27 1.42002 66.65 1.57002 66.11 1.58002C64.5 1.60002 62.35 1.14002 61.01 1.89002C60.74 2.91002 60.67 4.99002 61.32 5.60002C61.97 6.19002 63.78 5.61002 64.41 6.22002C64.99 7.85002 64.58 9.82002 64.56 11.31C64.56 11.9 64.73 12.45 64.71 13.01C64.6 17.39 64.64 21.99 64.87 26.14C64.11 28.55 63.16 31.27 60.7 32.47C60.11 32.76 59.22 33.06 58.39 33.25C57.51 33.45 56.3 33.65 55.46 33.55C54.85 33.48 54.24 33.05 53.61 32.78C53.29 32.65 52.97 32.61 52.68 32.47C51.1 31.75 50.13 30.53 49.43 29.07C48.58 26.01 48.81 22.13 48.81 18.11C48.81 15.56 48.78 12.99 48.81 10.7C48.83 8.94002 48.41 7.28002 49.27 5.92002C49.97 5.58002 51.36 5.94002 52.05 5.61002C52.64 4.98002 52.66 3.05002 52.36 2.06002C51.68 1.51002 50.57 1.86002 49.59 1.75002C49.05 1.69002 48.58 1.48002 48.04 1.44002C45.83 1.28002 43.18 1.63002 41.56 1.60002C40.55 2.02002 40.38 4.26002 40.94 5.31002C41.62 5.86002 43.26 5.47002 43.87 6.08002C44.55 8.05002 44.02 10.25 44.03 12.41C44.03 16.02 44.15 19.71 44.18 23.22C44.19 24.55 43.99 25.85 44.18 27.08C44.23 27.37 44.42 27.71 44.49 28.01C44.82 29.35 44.98 30.29 45.27 31.41C45.39 31.58 45.59 31.7 45.73 31.87C45.9 32.08 45.89 32.29 46.04 32.48C46.3 32.81 46.69 33.06 46.97 33.41C47.57 34.18 48.1 35.18 48.98 35.57C49.03 35.6 49.06 35.84 49.14 35.88C49.85 36.27 50.75 36.57 51.3 36.81C51.94 37.08 52.58 37.35 53.15 37.43C53.78 37.53 54.6 37.37 55.31 37.43C56.06 37.5 56.66 37.74 57.32 37.74C58.94 37.74 60.43 37.14 61.95 36.97C63.32 36.13 64.49 35.37 65.5 34.34C66.1 33.74 66.58 33.15 66.89 32.64C67.16 32.21 67.39 31.84 67.66 31.41C68.05 30.78 68.38 30.36 68.59 29.7C68.75 29.2 68.8 28.36 68.9 27.54C68.97 26.95 69.18 26.2 69.21 25.69C69.24 25.19 69.04 24.67 69.06 24.15C69.06 23.6 69.19 23.12 69.21 22.6C69.26 20.98 69.21 19.28 69.21 17.97C69.21 17.44 69.37 16.92 69.36 16.42C69.3 13.64 69.17 10.75 69.21 8.54002C69.22 7.66002 69.03 6.69002 69.51 5.92002C70.45 5.84002 71.49 5.97002 72.29 5.46002C72.63 4.40002 72.67 2.60002 71.98 1.75002C71.18 1.37002 70.36 1.81002 69.51 1.75002V1.73002ZM115.38 33.24C114.33 32.54 112.68 32.44 111.98 31.39C111.91 30.54 111.53 29.77 111.52 28.92C111.52 28.39 111.72 27.89 111.67 27.37C111.64 27.01 111.46 26.55 111.36 26.14C110.95 24.42 110.22 23.4 109.66 22.12C110.06 21.39 110.78 20.98 111.36 20.42C111.93 19.87 112.37 19.16 113.06 18.72C113.35 17.67 113.92 16.9 114.29 15.94C114.64 13.67 115.04 11.62 114.45 9.61002C114.31 9.13002 113.9 8.58002 113.67 8.06002C113.4 7.42002 113.29 6.75002 113.05 6.36002C112.97 6.23002 112.68 6.17002 112.59 6.05002C112.43 5.85002 112.42 5.59002 112.28 5.43002C111.98 5.09002 111.51 4.91002 111.35 4.50002C110.85 4.13002 110.04 4.07002 109.65 3.58002C108.72 2.42002 107.29 2.23002 105.63 1.88002C102.7 1.26002 99.79 1.50002 96.68 1.57002C95.26 1.60002 93.84 1.41002 92.51 1.41002C91.14 1.43002 89.86 1.62002 88.65 1.72002C88.17 2.50002 87.9 4.54002 88.49 5.43002C88.95 6.20002 90.82 5.57002 91.42 6.20002C91.88 11.92 91.42 18.07 91.42 23.65C91.42 25.21 91.73 26.8 91.73 28.28C91.73 28.8 91.59 29.32 91.57 29.83C91.54 30.96 91.93 32.21 91.11 33.07C90.39 33.33 89.18 33.1 88.49 33.38C88.11 34.21 88.04 35.93 88.34 36.93C90.7 37.94 94.22 37.13 96.83 37.08C97.32 37.07 97.71 37.27 98.22 37.23C98.7 37.21 99.17 37.08 99.61 36.92C100.09 35.91 99.84 33.95 99.15 33.22C98.04 32.91 96.59 33.26 96.21 32.44C96.02 31.79 96.23 31.04 96.21 30.28C96.14 27.97 95.72 25.33 96.67 23.49C97.25 23.5 97.83 23.31 98.52 23.33C99.25 23.35 99.93 23.6 100.68 23.64C101.62 23.69 102.5 23.4 103.31 23.49C103.96 23.55 104.9 23.94 105.47 24.11C105.52 24.12 105.72 24.38 105.78 24.42C107.52 25.58 106.66 28.56 107.02 31.37C107.35 32.03 107.83 32.66 108.25 33.37C108.42 33.66 108.51 34.14 108.72 34.45C108.8 34.58 109.08 34.64 109.18 34.76C109.35 34.97 109.33 35.24 109.49 35.38C109.54 35.43 109.73 35.35 109.79 35.38C109.84 35.41 109.89 35.65 109.95 35.69C110.38 35.98 111.02 36.19 111.64 36.46C113.41 37.24 115.73 38.31 117.66 37.38C118.17 36.45 118.1 34.28 117.51 33.52C116.89 33.32 116.26 33.12 115.34 33.21L115.38 33.24ZM107.97 17.79C106.69 18.42 105.1 18.73 103.81 19.34C101.45 18.97 98.9 19.51 96.7 19.18C96.09 18.32 96.25 17.24 96.24 16.1C96.21 14.12 96.24 11.78 96.24 9.30002C96.24 8.16002 96.04 6.98002 96.55 6.06002C96.81 6.10002 96.82 5.91002 97.02 5.91002C97.88 5.48002 99.7 5.91002 101.19 5.91002C102.07 5.91002 102.88 5.67002 103.66 5.75002C105.39 5.93002 107.47 7.01002 108.6 8.06002C109.75 9.15002 109.98 10.04 109.99 12.54C109.99 13.74 110.01 14.98 109.68 15.78C109.28 16.74 108.38 17.07 107.98 17.79H107.97ZM197.54 32C197.48 30.62 197.79 29.06 197.23 27.98C196.27 27.41 194.52 27.83 193.67 28.28C193.34 29.7 193.6 31.71 192.9 32.76C190.13 33.38 186.06 32.95 182.86 33.07C181.82 33.11 180.87 33.47 180.08 32.91C179.21 31.73 179.64 29.88 179.62 28.13C179.59 25.81 178.93 23.19 179.93 21.64C183.86 20.82 189.35 21.8 192.75 21.18C193.22 20.36 193.57 18.98 193.21 17.78C192.35 16.91 191.14 17.14 189.81 17.16C188.51 17.2 187.07 17.07 185.64 17.01C183.58 16.92 181.47 17.24 179.77 16.86C179.08 15.79 179.45 14.43 179.46 13C179.48 10.64 178.98 7.90002 179.77 6.05002C180.75 5.62002 182 5.80002 183.32 5.74002C185.57 5.64002 188.09 5.39002 190.12 5.58002C190.97 5.67002 191.9 5.86002 192.43 6.35002C192.99 7.02002 192.53 8.72002 192.89 9.59002C193.51 10.31 195.23 10.4 196.29 10.21C196.75 9.50002 197.07 8.46002 197.07 7.43002C197.07 6.79002 196.79 6.13002 196.76 5.42002C196.7 4.13002 197.14 2.67002 196.45 1.71002C195.44 1.39002 194.41 1.77002 193.36 1.71002C192.75 1.68002 192.13 1.45002 191.5 1.40002C190.07 1.29002 188.61 1.55002 187.18 1.56002C185.46 1.58002 183.56 1.44002 182.08 1.40002C181.39 1.40002 180.75 1.40002 180.07 1.40002C177.4 1.46002 174.51 1.54002 172.36 1.56002C171.48 2.28002 171.63 4.63002 172.2 5.57002C172.91 5.94002 174.48 5.46002 174.82 6.19002C175.2 9.81002 174.96 13.5 174.97 17.15C174.99 21.38 175.15 25.55 174.97 29.66C174.93 30.67 175.17 31.78 174.67 32.75C173.99 33.1 172.56 32.71 172.04 33.22C171.43 33.96 171.31 36.52 172.04 37.23C174.68 37.34 177.79 37.26 180.23 37.23C181.04 37.23 181.96 37.43 182.7 37.39C185.88 37.22 190.8 37.55 193.97 37.39C195.11 37.34 196.38 37.64 197.37 37.08C197.89 36.69 197.49 36.02 197.53 35.38C197.59 34.17 197.57 33.02 197.53 31.99L197.54 32ZM239.23 28.13C238.32 27.83 237.15 27.41 236.15 27.67C234.83 28.62 235.71 31.76 234.6 32.92C233.81 33.46 232.84 33.11 231.82 33.08C230.52 33.03 228.97 32.92 227.65 32.92C226.23 32.92 224.88 33.42 223.79 32.76C223.44 30.44 223.63 27.63 223.64 25.51C223.64 23.96 223.48 22.35 223.48 20.72C223.48 19.09 223.59 17.35 223.48 15.78C223.39 14.5 223.48 13.3 223.48 12.07C223.48 9.97002 222.85 7.79002 223.94 6.05002C224.74 5.62002 226.15 5.79002 226.87 5.28002C227.1 4.46002 227.1 2.86002 226.87 2.04002C225.91 1.19002 224.45 1.58002 223.01 1.58002C220.8 1.58002 218.62 1.48002 216.68 1.42002C216.48 1.42002 216.47 1.63002 216.22 1.58002H215.91C215.14 2.20002 215.34 4.73002 215.76 5.60002C216.46 6.22002 217.63 5.46002 218.54 5.91002C219.79 7.29002 218.75 10.95 219.31 13.01C218.77 14.14 219.12 15.26 219.15 16.41C219.2 17.74 218.97 19.19 219 20.58C219 21.17 219.15 21.71 219.15 22.28C219.15 23.73 218.83 25.18 218.84 26.61C218.85 27.79 218.88 28.82 218.84 29.85C218.8 30.9 219.22 32.14 218.38 32.94C217.76 33.3 216.3 32.82 215.91 33.4C215.4 34.17 215.49 36.32 215.91 37.1C217.31 37.51 219.61 37.24 221.16 37.26C223.89 37.3 226.76 37.29 229.66 37.42C232.27 37.54 234.92 37.42 237.07 37.26C237.84 37.2 238.73 37.45 239.39 36.96C239.39 35.79 239.54 34.46 239.54 33.41C239.54 32.94 239.37 32.49 239.39 32.02C239.43 30.63 239.6 29.4 239.23 28.16V28.13ZM280.77 31.68C280.78 30.23 281.24 28.81 280.31 27.98C279.47 27.73 277.55 27.66 276.91 28.13C276.2 29.33 277.06 32.08 275.84 32.76C273.5 33.01 270.2 33.19 267.34 33.07C266.38 33.03 265.45 33.17 264.87 32.45C264.84 29.44 264.55 26.49 264.56 23.5C264.57 21.48 264.87 19.47 264.87 17.48C264.87 14.5 264.87 11.56 264.87 8.68002C264.87 7.73002 264.69 6.74002 265.18 5.90002C265.99 5.48002 267.51 5.74002 268.26 5.28002C268.71 4.57002 268.66 2.79002 268.42 1.89002C267.59 1.58002 266.63 1.37002 265.64 1.42002C265.19 1.45002 264.96 1.42002 264.71 1.42002C262.4 1.48002 260.35 1.42002 257.92 1.42002C256.5 1.67002 256.68 4.39002 257.14 5.59002C258.3 5.88002 260.1 5.51002 260.39 6.68002C260.13 10.29 260.59 13.85 260.39 17.64C260.36 18.24 260.22 18.87 260.24 19.5C260.24 20.45 260.49 21.42 260.54 22.43C260.62 23.9 260.36 25.44 260.39 26.9C260.42 28.17 260.5 29.52 260.39 30.76C260.32 31.57 260.45 32.4 259.78 32.92C259.12 33.24 257.81 32.91 257.14 33.23C256.71 34.2 256.56 35.98 256.99 36.93C257.95 37.72 259.2 37.24 260.38 37.24C261.67 37.24 263.06 37.4 264.39 37.4C269.9 37.4 275.72 37.64 280.62 37.09C281.11 36.4 280.92 35.42 280.92 34.46C280.91 33.57 280.76 32.54 280.76 31.69L280.77 31.68ZM535.75 25.11C534.77 21.21 531.37 19.72 528.81 17.39C527.28 17.27 526.49 16.42 525.1 16.16C522.72 14 518.5 13.7 519.08 8.59002C519.57 7.58002 520.16 6.39002 521.39 5.81002C522.2 5.43002 524.13 5.06002 525.09 5.19002C525.64 5.27002 526.01 5.57002 526.48 5.81002C526.95 6.06002 527.42 6.34002 527.87 6.58002C528.25 7.28002 528.83 7.79002 529.1 8.59002C529.39 9.33002 529.27 10.49 529.73 11.06C530.68 11.29 532.29 11.51 533.59 11.21C534.29 10.16 534.05 8.32002 534.05 6.58002C534.05 4.84002 534.26 2.96002 533.74 1.79002C532.23 1.05002 529.96 1.68002 528.65 2.10002C527.59 1.81002 526.51 1.55002 525.7 1.02002C524 1.00002 522.93 0.900018 521.54 1.18002C520.61 1.36002 519.68 1.80002 519.21 2.10002C518.6 2.51002 517.97 2.82002 517.36 3.19002C515.55 5.19002 514.19 7.63002 514.59 11.83C515.04 13.99 516.43 15.22 517.52 16.77C518.65 17.25 519.53 18.18 520.6 18.77C520.98 18.97 521.45 19.06 521.83 19.23C522.99 19.76 524.13 20.62 525.55 20.78C526.13 21.53 527.08 21.7 527.87 22.17C528.04 22.28 528.16 22.52 528.33 22.63C528.97 23.06 529.52 23.26 530.02 23.71C530.16 24.6 530.86 24.94 531.11 25.71C531.24 26.51 531.75 27.15 531.73 27.87C531.7 28.7 531.11 29.63 530.65 30.34C530.14 31.12 529.53 31.81 528.95 32.19C527.7 32.75 526.13 33.4 524.48 33.43C522.57 33.45 521.11 32.57 519.84 31.88C519.54 31.25 518.99 30.89 518.61 30.33C518.35 29.61 518 28.98 517.68 28.32C517.63 27.38 517.48 26.54 517.07 26C515.91 25.6 514.52 26.07 513.68 26.46C513.07 27.38 513.37 28.67 513.36 30.02C513.36 32.35 512.78 35.03 513.68 36.81C514.44 37.12 515.82 36.83 516.61 37.12C517.26 36.9 517.28 36.04 518.15 36.03C519.67 36.48 521.6 37.5 523.7 37.58C524.36 37.6 525.23 37.48 526.02 37.42C526.89 37.37 527.77 37.34 528.49 37.26C529.16 37.19 529.74 36.56 530.2 36.34C530.78 36.03 531.33 35.92 531.88 35.72C533.42 34.35 534.87 32.89 535.43 30.78C535.88 29.16 535.74 27.31 535.74 25.07L535.75 25.11ZM344.87 1.49002C343.98 1.23002 343.01 1.32002 342.1 1.34002C340.15 1.39002 337.16 1.47002 335.31 1.49002C334.84 1.49002 334.36 1.32002 333.92 1.34002C332.44 1.39002 330.4 1.40002 329.29 1.49002C326.45 1.75002 323.17 1.01002 320.49 1.96002C320.18 2.88002 320.34 4.39002 320.49 5.35002C321.32 5.91002 322.96 5.65002 323.58 6.43002C323.8 9.98002 323.65 13.7 323.72 17.08C323.75 18.34 323.82 20.04 323.88 20.94C323.88 21.21 323.73 21.47 323.72 21.71C323.66 24.12 323.77 26.56 323.72 28.49C323.68 29.94 324.11 31.55 323.11 32.67C322.38 32.92 321.21 32.73 320.64 33.13C320.19 33.94 319.86 35.92 320.48 36.84C321.32 37.53 322.45 37.19 323.57 37.15C324.9 37.11 326.57 37.02 327.58 36.99C327.8 36.99 327.87 37.16 328.2 37.15C328.42 37.13 328.47 36.97 328.81 36.99C329.92 37.05 331 37.54 331.74 36.83C332.24 35.93 332.22 33.69 331.6 32.97C330.74 32.53 328.81 33.19 328.2 32.52C327.62 30.28 328.41 28.19 327.88 26.18C328.58 25.1 327.72 23.29 328.34 22.32C331 22.05 334.41 22.15 337.15 22.17C339.11 22.18 340.81 22.48 342.09 21.86C342.23 20.77 342.6 19.14 342.09 18.31C341.51 17.73 340.65 18.17 339.77 18.16C338.28 18.13 336.62 17.99 335.61 17.69C334.23 18.12 332.49 17.7 330.98 17.69C329.94 17.69 328.83 18.18 328.21 17.38C328.15 15.86 328.21 13.71 328.21 11.68C328.21 10.64 328.19 9.51002 328.21 8.58002C328.22 7.57002 328.02 6.59002 328.67 5.96002C331.01 5.69002 333.75 5.79002 335.61 5.80002C336.48 5.81002 337.38 5.84002 338.23 5.80002C339.17 5.76002 340.21 5.35002 341.01 5.96002C341.33 7.24002 340.97 9.20002 341.79 9.97002C342.61 10.25 344.34 10.19 345.19 9.97002C345.74 8.58002 345.54 6.49002 345.49 5.03002C345.45 3.66002 345.75 2.22002 344.87 1.47002V1.49002ZM389.04 32.84C388.44 32.18 388.15 31.33 387.8 30.53C387.65 30.18 387.59 29.89 387.5 29.6C387.02 28.4 386.32 27.28 385.95 26.2C385.72 25.53 385.75 24.71 385.49 24.04C385.21 23.28 384.56 22.63 384.26 21.88C384.23 20.83 383.66 20.32 383.34 19.56C383.05 18.09 382.4 16.99 381.79 15.86C381.7 13.83 380.49 12.93 380.4 10.92C379.47 9.69002 379.07 7.91002 378.55 6.29002C378.87 5.53002 380.17 5.76002 380.56 5.06002C380.86 3.94002 380.69 2.20002 380.09 1.51002C377.81 1.37002 374.92 1.17002 372.53 1.36002C372.11 1.39002 371.69 1.64002 371.29 1.67002C370.39 1.73002 369.52 1.34002 368.98 1.98002C368.73 2.92002 368.98 4.21002 369.12 5.21002C369.28 5.98002 370.58 5.60002 370.66 6.45002C370.66 7.35002 370.62 8.04002 370.36 8.76002C370.04 9.63002 369.26 10.32 368.98 11.08C368.75 11.68 368.84 12.36 368.66 12.93C368.6 13.13 368.45 13.31 368.35 13.55C368.02 14.34 367.67 15.12 367.58 16.03C366.42 17.18 366.45 19.53 365.26 20.66C365.06 22.78 363.94 23.98 363.72 26.06C361.99 27.63 362.1 31.03 360.48 32.7C360.13 33.18 358.97 32.85 358.46 33.16C357.56 33.97 357.76 36.15 358.46 37.02C359.85 37.62 361.59 37.18 363.25 37.18C365.06 37.18 366.94 37.7 368.35 36.87C368.83 36.1 368.7 34.31 368.5 33.32C367.9 32.73 366.35 33.11 366.03 32.24C366.34 30.64 366.47 28.86 367.73 28.23C369.58 27.62 371.48 28.14 373.45 28.23C374.41 28.27 375.37 28.07 376.39 28.07C378.13 28.07 379.94 28.39 381.79 28.23C382.28 28.64 382.53 28.98 382.72 29.46C382.95 30.06 383 30.61 383.18 31.16C383.32 31.61 383.56 31.98 383.48 32.39C383.04 33.08 381.82 33 381.17 33.48C380.86 34.35 380.59 36.23 381.17 37.03C383.42 37.42 386.21 37.26 388.57 37.19C389.58 37.16 390.63 37.46 391.36 36.88C391.9 35.95 391.75 33.94 391.04 33.33C390.58 32.97 389.65 33.09 389.04 32.87V32.84ZM377.92 23.88C376.76 23.96 375.31 23.73 374.22 23.73C372.48 23.72 370.52 24.37 369.28 23.42C369.05 22.21 369.98 21.3 370.36 20.18C370.77 18.97 370.93 17.48 371.45 16.32C371.73 15.68 372.39 15.14 372.68 14.47C372.9 13.97 372.8 13.47 372.99 12.93C373.14 12.51 373.58 12.12 373.76 11.7C373.99 11.15 373.92 10.4 374.38 10.15C374.41 9.97002 374.69 10.04 374.69 9.84002C374.82 9.92002 374.94 10 375.15 9.99002C375.59 10.48 375.56 11.12 375.76 11.7C375.95 12.23 376.18 12.85 376.39 13.39C376.59 13.97 376.8 14.53 377.01 15.09C377.38 16.1 377.93 17.15 378.39 18.33C378.62 18.91 378.79 19.45 379.01 20.03C379.4 21.11 379.91 22.23 380.08 23.43C379.53 23.81 378.7 23.84 377.92 23.89V23.88ZM435.05 32.99C434.16 32.78 434.06 32.68 433.51 32.37C432.63 31.88 431.98 31.6 431.65 30.82C431.21 29.78 431.62 28.63 431.5 27.42C431.33 25.88 430.58 24.47 430.11 23.56C429.84 23.04 429.57 22.59 429.49 22.01C430.17 20.39 431.78 19.67 432.89 18.46C433.06 17.22 433.98 16.34 434.27 15.07C434.82 12.69 434.3 9.75002 433.66 8.12002C433.43 7.53002 433.25 6.91002 433.05 6.57002C432.85 6.23002 432.03 5.62002 431.81 5.34002C431.66 5.13002 431.66 4.87002 431.51 4.72002C431.45 4.68002 431.25 4.75002 431.19 4.72002C431.15 4.70002 431.08 4.45002 431.05 4.42002C430.26 3.75002 429.6 3.13002 428.73 2.71002C428.35 2.54002 427.94 2.34002 427.65 2.25002C426.98 2.04002 426.23 2.12002 425.48 1.95002C425.18 1.87002 424.93 1.55002 424.72 1.48002C424.31 1.38002 423.79 1.36002 423.48 1.33002C422.45 1.23002 421.41 1.48002 420.24 1.48002C419.5 1.48002 418.68 1.33002 417.92 1.33002C415.91 1.33002 414.06 1.50002 412.35 1.48002C410.88 1.48002 409.41 1.00002 408.19 1.95002C407.86 3.08002 408.02 4.82002 408.49 5.65002C409.21 5.95002 410.6 5.60002 410.96 6.27002C411.54 7.67002 411.31 9.36002 411.27 11.06C411.21 14.78 411.27 18.59 411.27 22.18C411.27 24.06 411.45 25.87 411.42 27.59C411.42 28.1 411.27 28.65 411.27 29.13C411.27 29.73 411.47 30.26 411.42 30.83C411.38 31.48 411.36 31.94 410.96 32.53C410.26 32.91 409.15 32.87 408.34 33.15C408.14 34.28 408.23 35.65 408.34 36.7C409.3 37.44 410.67 37.12 412.06 37.17C414.49 37.25 417.12 37.3 419.46 37.01C420.19 36.07 419.93 33.91 419.31 32.99C418.4 32.61 416.56 33.17 416.07 32.37C415.9 29.93 415.99 26.71 416.22 23.88C417.08 23.33 418.34 23.38 419.61 23.42C421.69 23.47 423.82 23.65 425.18 24.04C427.07 25.32 426.52 28.95 427.02 31.6C427.3 32.21 427.67 32.71 427.8 33.46C428.76 34.62 429.91 35.57 431.05 36.55C432.88 36.9 435.09 38.27 437.21 37.32C437.96 36.32 437.46 34.84 437.21 33.61C436.54 33.2 435.73 33.15 435.05 32.99ZM424.86 18.94C424.23 19.13 423.52 19.35 423.01 19.4C422.52 19.44 422 19.25 421.46 19.24C419.81 19.23 417.92 19.63 416.37 19.09C415.91 17.92 416.06 16.5 416.06 15.08C416.06 13.2 415.85 11.52 415.91 9.52002C415.91 9.37002 416.07 9.19002 416.06 8.91002C416.02 8.18002 415.62 6.59002 416.52 5.97002C417.57 5.67002 418.73 5.89002 419.77 5.66002C420.71 5.45002 422.86 5.79002 424.08 5.97002C424.66 6.05002 425.24 5.98002 425.63 6.13002C425.96 6.24002 426.69 6.77002 427.33 7.21002C427.96 7.66002 428.58 8.05002 428.87 8.45002C428.98 8.60002 428.92 8.65002 429.03 8.76002C429.35 9.10002 429.77 11.15 429.8 12C429.82 12.62 429.62 13.41 429.5 14.16C429.37 14.91 429.42 15.69 429.19 16.17C428.64 17.32 426.55 18.43 424.87 18.95L424.86 18.94ZM494.66 33.15C494 32.77 492.49 33.26 492.03 32.69C491.56 32.07 491.74 31.23 491.73 30.53C491.7 29.66 491.73 28.76 491.73 27.9C491.73 26.24 491.54 24.57 491.57 22.96C491.65 19.34 491.74 15.28 491.57 11.69C491.48 9.41002 491.43 7.14002 492.18 5.97002C492.7 5.46002 494.12 5.83002 494.66 5.35002C495.04 4.37002 495.33 2.64002 494.81 1.65002C493.97 1.10002 492.95 1.49002 491.87 1.49002C490.34 1.49002 488.7 1.33002 487.4 1.49002C486.35 2.09002 486.01 3.33002 485.54 4.27002C485.02 5.29002 484.42 6.26002 483.83 7.20002C483.42 7.88002 482.9 8.41002 482.75 9.21002C482.38 9.51002 482.11 9.89002 481.99 10.44C481.1 11.12 480.69 12.27 480.13 13.22C479.67 13.98 479.23 14.68 478.89 15.38C478.5 16.22 478.1 16.92 477.66 17.7C477.49 17.99 477.29 18.16 477.2 18.32C476.42 19.58 476.1 21.45 474.57 21.72C474.04 21.61 473.99 21.06 473.64 20.79C473.75 20.34 473.25 20.32 473.03 20.02C472.82 19.72 472.77 19.25 472.57 18.94C472.57 18.94 472.43 18.8 472.42 18.78C471.9 18.26 471.72 17.53 471.35 17.08C470.65 15.29 469.62 13.58 468.71 12.14C468.38 11.61 467.93 11.14 467.63 10.6C467 9.49002 466.65 8.25002 465.94 7.20002C465.77 6.97002 465.48 6.81002 465.32 6.58002C465.12 6.31002 465.06 5.96002 464.86 5.66002C464.51 5.14002 464.1 4.66002 463.78 4.11002C463.35 3.36002 463.14 2.47002 462.54 1.80002C460.74 1.08002 457.9 1.41002 455.45 1.34002C454.08 1.53002 454.4 4.48002 454.84 5.51002C455.59 5.93002 457.05 5.65002 457.77 6.13002C458.52 10.4 457.8 15.23 458.07 19.72C458.11 20.28 458.23 20.73 458.23 21.26C458.23 22.5 457.91 23.8 457.91 24.96C457.91 26.12 457.91 27.25 457.91 28.2C457.91 29.81 458.35 31.33 457.76 32.68C457.07 33.18 455.55 32.85 454.97 33.45C454.48 34.24 454.36 35.78 454.83 36.69C456.08 37.45 457.94 37.04 459.61 37.15C460.72 37.22 461.57 37.19 462.53 37.15C463.86 37.08 465.11 37.47 466.09 37C466.29 35.94 466.45 33.8 465.94 32.98C464.7 32.59 462.84 33.42 462.23 32.21C462.72 28.31 461.6 23.56 462.38 19.71C461.85 18.82 462.23 17.85 462.23 16.92C462.23 15.99 462.21 15.07 462.23 14.3C462.25 13.15 461.82 11.77 462.99 11.52C463.54 11.9 463.77 12.54 464.09 13.07C464.26 13.35 464.58 13.58 464.69 13.84C464.84 14.17 464.81 14.61 465 14.92C465.39 15.64 466.11 16.27 466.38 16.92C466.64 17.54 466.78 17.83 467.31 18.16C467.48 18.84 467.92 19.43 468.24 20.01C468.41 20.33 468.52 20.59 468.7 20.94C468.85 21.21 469.16 21.43 469.33 21.71C469.68 22.3 469.92 22.95 470.24 23.56C470.58 24.2 470.85 24.85 471.34 25.41C472.41 26.95 472.71 29.28 475.5 29.12C476.31 28.71 476.89 27.65 477.21 26.95C477.23 26.9 477.48 26.87 477.51 26.8C477.64 26.59 477.71 26.36 477.82 26.18C478.52 24.94 479.02 23.81 479.68 22.63C480.18 21.73 480.73 20.78 481.07 20C481.08 19.95 481.34 19.9 481.37 19.84C481.48 19.67 481.58 19.4 481.68 19.22C481.89 18.86 482.08 18.36 482.29 17.98C482.78 17.16 483.5 16.27 483.83 15.51C483.86 15.46 484.11 15.42 484.14 15.35C484.26 15.13 484.35 14.95 484.46 14.74C484.66 14.35 484.87 13.9 485.07 13.5C485.43 12.75 485.51 11.41 486.76 11.49C487.3 12.35 487.02 13.37 487.07 14.42C487.1 15 487.19 15.64 487.22 16.27C487.27 16.89 487.41 17.55 487.39 18.13C487.36 18.79 487.08 19.35 487.07 19.98C487.07 20.53 487.22 21.09 487.22 21.68C487.22 23.69 487.07 25.99 487.07 28.16C487.07 29.9 487.38 31.6 486.6 32.64C486.01 33.27 484.11 32.62 483.52 33.25C483 34.04 483.11 36.15 483.52 36.96C485.96 37.19 489.04 37.22 491.7 37.27C492.84 37.29 493.91 37.24 494.79 36.96C495.07 36.5 495.22 35.68 494.94 35.1C494.9 34.36 495.1 33.4 494.64 33.09L494.66 33.15Z" fill="#414141"/>
</svg>
